<mxfile host="app.diagrams.net" modified="2023-12-16T11:00:28.579Z" agent="Mozilla/5.0 (Windows NT 10.0; Win64; x64) AppleWebKit/537.36 (KHTML, like Gecko) Chrome/120.0.0.0 Safari/537.36" etag="qo1cabkWfcySVOhU7ejg" version="22.1.11" type="device">
  <diagram name="Page-1" id="ADGryL9oAItW_gRc_0J3">
    <mxGraphModel dx="1114" dy="592" grid="1" gridSize="10" guides="1" tooltips="1" connect="1" arrows="1" fold="1" page="1" pageScale="1" pageWidth="827" pageHeight="1169" background="none" math="0" shadow="0">
      <root>
        <mxCell id="0" />
        <mxCell id="1" parent="0" />
        <mxCell id="udIu6joc9BEPhi_EstPC-71" value="" style="rounded=0;whiteSpace=wrap;html=1;fillColor=none;" parent="1" vertex="1">
          <mxGeometry x="40" y="40" width="240" height="320" as="geometry" />
        </mxCell>
        <mxCell id="Y_hPN_i8KGFdPRQdq1vt-4" value="" style="rounded=0;whiteSpace=wrap;html=1;fillColor=#E6E6E6;" parent="1" vertex="1">
          <mxGeometry x="250" y="150" width="20" height="20" as="geometry" />
        </mxCell>
        <mxCell id="udIu6joc9BEPhi_EstPC-72" value="" style="rounded=0;whiteSpace=wrap;html=1;" parent="1" vertex="1">
          <mxGeometry x="40" y="80" width="240" height="30" as="geometry" />
        </mxCell>
        <mxCell id="udIu6joc9BEPhi_EstPC-73" value="" style="endArrow=none;html=1;rounded=0;strokeWidth=1;" parent="1" edge="1">
          <mxGeometry width="50" height="50" relative="1" as="geometry">
            <mxPoint x="250" y="70" as="sourcePoint" />
            <mxPoint x="270" y="50" as="targetPoint" />
          </mxGeometry>
        </mxCell>
        <mxCell id="udIu6joc9BEPhi_EstPC-74" value="" style="endArrow=none;html=1;rounded=0;strokeWidth=1;" parent="1" edge="1">
          <mxGeometry width="50" height="50" relative="1" as="geometry">
            <mxPoint x="270" y="70" as="sourcePoint" />
            <mxPoint x="250" y="50" as="targetPoint" />
          </mxGeometry>
        </mxCell>
        <mxCell id="udIu6joc9BEPhi_EstPC-78" value="" style="endArrow=none;html=1;rounded=0;" parent="1" edge="1">
          <mxGeometry width="50" height="50" relative="1" as="geometry">
            <mxPoint x="90" y="170" as="sourcePoint" />
            <mxPoint x="240" y="170" as="targetPoint" />
          </mxGeometry>
        </mxCell>
        <mxCell id="udIu6joc9BEPhi_EstPC-79" value="Find directions:" style="text;html=1;strokeColor=none;fillColor=none;align=left;verticalAlign=middle;whiteSpace=wrap;rounded=0;" parent="1" vertex="1">
          <mxGeometry x="50" y="120" width="220" height="20" as="geometry" />
        </mxCell>
        <mxCell id="udIu6joc9BEPhi_EstPC-82" value="" style="endArrow=none;html=1;rounded=0;" parent="1" edge="1">
          <mxGeometry width="50" height="50" relative="1" as="geometry">
            <mxPoint x="240" y="290" as="sourcePoint" />
            <mxPoint x="90" y="289.61" as="targetPoint" />
          </mxGeometry>
        </mxCell>
        <mxCell id="udIu6joc9BEPhi_EstPC-85" value="Append point..." style="text;html=1;strokeColor=none;fillColor=none;align=left;verticalAlign=middle;whiteSpace=wrap;rounded=0;fontColor=#797979;spacingLeft=2;" parent="1" vertex="1">
          <mxGeometry x="90" y="270.09000000000003" width="150" height="20" as="geometry" />
        </mxCell>
        <mxCell id="udIu6joc9BEPhi_EstPC-88" value="Search" style="rounded=1;whiteSpace=wrap;html=1;fontColor=#000000;fontStyle=1;fillColor=#E6E6E6;" parent="1" vertex="1">
          <mxGeometry x="180" y="310" width="60" height="30" as="geometry" />
        </mxCell>
        <mxCell id="udIu6joc9BEPhi_EstPC-89" value="Clear" style="rounded=1;whiteSpace=wrap;html=1;fontColor=#000000;fontStyle=1;fillColor=#E6E6E6;" parent="1" vertex="1">
          <mxGeometry x="80" y="310" width="60" height="30" as="geometry" />
        </mxCell>
        <mxCell id="udIu6joc9BEPhi_EstPC-104" value="" style="endArrow=none;html=1;rounded=0;strokeWidth=1;" parent="1" edge="1">
          <mxGeometry width="50" height="50" relative="1" as="geometry">
            <mxPoint x="250" y="169.91" as="sourcePoint" />
            <mxPoint x="270" y="149.91" as="targetPoint" />
          </mxGeometry>
        </mxCell>
        <mxCell id="udIu6joc9BEPhi_EstPC-105" value="" style="endArrow=none;html=1;rounded=0;strokeWidth=1;" parent="1" edge="1">
          <mxGeometry width="50" height="50" relative="1" as="geometry">
            <mxPoint x="270" y="169.91" as="sourcePoint" />
            <mxPoint x="250" y="149.91" as="targetPoint" />
          </mxGeometry>
        </mxCell>
        <mxCell id="udIu6joc9BEPhi_EstPC-106" value="Rv" style="rounded=0;whiteSpace=wrap;html=1;fillColor=#E6E6E6;" parent="1" vertex="1">
          <mxGeometry x="250" y="270.09000000000003" width="20" height="20" as="geometry" />
        </mxCell>
        <mxCell id="2ITwi90kgeX8b2joUE7n-6" value="D" style="text;html=1;strokeColor=none;fillColor=none;align=center;verticalAlign=middle;whiteSpace=wrap;rounded=0;fontStyle=1;fontSize=20;" parent="1" vertex="1">
          <mxGeometry x="160" y="80" width="60" height="30" as="geometry" />
        </mxCell>
        <mxCell id="2ITwi90kgeX8b2joUE7n-7" value="R" style="text;html=1;strokeColor=none;fillColor=none;align=center;verticalAlign=middle;whiteSpace=wrap;rounded=0;fontStyle=0;fontSize=20;fontColor=#808080;" parent="1" vertex="1">
          <mxGeometry x="40" y="80" width="60" height="30" as="geometry" />
        </mxCell>
        <mxCell id="2ITwi90kgeX8b2joUE7n-8" value="P" style="text;html=1;strokeColor=none;fillColor=none;align=center;verticalAlign=middle;whiteSpace=wrap;rounded=0;fontStyle=0;fontSize=20;fontColor=#808080;" parent="1" vertex="1">
          <mxGeometry x="100" y="80" width="60" height="30" as="geometry" />
        </mxCell>
        <mxCell id="2ITwi90kgeX8b2joUE7n-9" value="F" style="text;html=1;strokeColor=none;fillColor=none;align=center;verticalAlign=middle;whiteSpace=wrap;rounded=0;fontStyle=0;fontSize=20;fontColor=#808080;" parent="1" vertex="1">
          <mxGeometry x="220" y="80" width="60" height="30" as="geometry" />
        </mxCell>
        <mxCell id="Y_hPN_i8KGFdPRQdq1vt-1" value="" style="ellipse;whiteSpace=wrap;html=1;aspect=fixed;fillColor=#808080;" parent="1" vertex="1">
          <mxGeometry x="70" y="150" width="20" height="20" as="geometry" />
        </mxCell>
        <mxCell id="Y_hPN_i8KGFdPRQdq1vt-2" value="" style="shape=image;html=1;verticalAlign=top;verticalLabelPosition=bottom;labelBackgroundColor=#ffffff;imageAspect=0;aspect=fixed;image=https://cdn1.iconfinder.com/data/icons/systemui/21/drag_vertical-128.png" parent="1" vertex="1">
          <mxGeometry x="50" y="150" width="20" height="20" as="geometry" />
        </mxCell>
        <mxCell id="Y_hPN_i8KGFdPRQdq1vt-3" value="Place 1" style="text;html=1;strokeColor=none;fillColor=none;align=left;verticalAlign=middle;whiteSpace=wrap;rounded=0;fontColor=#000000;spacingLeft=2;" parent="1" vertex="1">
          <mxGeometry x="90" y="150" width="150" height="20" as="geometry" />
        </mxCell>
        <mxCell id="Y_hPN_i8KGFdPRQdq1vt-5" value="" style="rounded=0;whiteSpace=wrap;html=1;fillColor=#E6E6E6;" parent="1" vertex="1">
          <mxGeometry x="280" y="40" width="160" height="320" as="geometry" />
        </mxCell>
        <mxCell id="Y_hPN_i8KGFdPRQdq1vt-6" value="" style="rounded=0;whiteSpace=wrap;html=1;fillColor=#E6E6E6;" parent="1" vertex="1">
          <mxGeometry x="250" y="189.76" width="20" height="20" as="geometry" />
        </mxCell>
        <mxCell id="Y_hPN_i8KGFdPRQdq1vt-7" value="" style="endArrow=none;html=1;rounded=0;" parent="1" edge="1">
          <mxGeometry width="50" height="50" relative="1" as="geometry">
            <mxPoint x="90" y="209.76" as="sourcePoint" />
            <mxPoint x="240" y="209.76" as="targetPoint" />
          </mxGeometry>
        </mxCell>
        <mxCell id="Y_hPN_i8KGFdPRQdq1vt-8" value="" style="endArrow=none;html=1;rounded=0;strokeWidth=1;" parent="1" edge="1">
          <mxGeometry width="50" height="50" relative="1" as="geometry">
            <mxPoint x="250" y="209.67" as="sourcePoint" />
            <mxPoint x="270" y="189.67" as="targetPoint" />
          </mxGeometry>
        </mxCell>
        <mxCell id="Y_hPN_i8KGFdPRQdq1vt-9" value="" style="endArrow=none;html=1;rounded=0;strokeWidth=1;" parent="1" edge="1">
          <mxGeometry width="50" height="50" relative="1" as="geometry">
            <mxPoint x="270" y="209.67" as="sourcePoint" />
            <mxPoint x="250" y="189.67" as="targetPoint" />
          </mxGeometry>
        </mxCell>
        <mxCell id="Y_hPN_i8KGFdPRQdq1vt-10" value="" style="ellipse;whiteSpace=wrap;html=1;aspect=fixed;fillColor=#808080;" parent="1" vertex="1">
          <mxGeometry x="70" y="189.76" width="20" height="20" as="geometry" />
        </mxCell>
        <mxCell id="Y_hPN_i8KGFdPRQdq1vt-11" value="" style="shape=image;html=1;verticalAlign=top;verticalLabelPosition=bottom;labelBackgroundColor=#ffffff;imageAspect=0;aspect=fixed;image=https://cdn1.iconfinder.com/data/icons/systemui/21/drag_vertical-128.png" parent="1" vertex="1">
          <mxGeometry x="50" y="189.76" width="20" height="20" as="geometry" />
        </mxCell>
        <mxCell id="Y_hPN_i8KGFdPRQdq1vt-12" value="Place&amp;nbsp;2" style="text;html=1;strokeColor=none;fillColor=none;align=left;verticalAlign=middle;whiteSpace=wrap;rounded=0;fontColor=#000000;spacingLeft=2;" parent="1" vertex="1">
          <mxGeometry x="90" y="189.76" width="150" height="20" as="geometry" />
        </mxCell>
        <mxCell id="Y_hPN_i8KGFdPRQdq1vt-13" value="" style="rounded=0;whiteSpace=wrap;html=1;fillColor=#E6E6E6;" parent="1" vertex="1">
          <mxGeometry x="250" y="230.09" width="20" height="20" as="geometry" />
        </mxCell>
        <mxCell id="Y_hPN_i8KGFdPRQdq1vt-14" value="" style="endArrow=none;html=1;rounded=0;" parent="1" edge="1">
          <mxGeometry width="50" height="50" relative="1" as="geometry">
            <mxPoint x="90" y="250.09" as="sourcePoint" />
            <mxPoint x="240" y="250.09" as="targetPoint" />
          </mxGeometry>
        </mxCell>
        <mxCell id="Y_hPN_i8KGFdPRQdq1vt-15" value="" style="endArrow=none;html=1;rounded=0;strokeWidth=1;" parent="1" edge="1">
          <mxGeometry width="50" height="50" relative="1" as="geometry">
            <mxPoint x="250" y="250" as="sourcePoint" />
            <mxPoint x="270" y="230" as="targetPoint" />
          </mxGeometry>
        </mxCell>
        <mxCell id="Y_hPN_i8KGFdPRQdq1vt-16" value="" style="endArrow=none;html=1;rounded=0;strokeWidth=1;" parent="1" edge="1">
          <mxGeometry width="50" height="50" relative="1" as="geometry">
            <mxPoint x="270" y="250" as="sourcePoint" />
            <mxPoint x="250" y="230" as="targetPoint" />
          </mxGeometry>
        </mxCell>
        <mxCell id="Y_hPN_i8KGFdPRQdq1vt-17" value="" style="ellipse;whiteSpace=wrap;html=1;aspect=fixed;fillColor=#808080;" parent="1" vertex="1">
          <mxGeometry x="70" y="230.09" width="20" height="20" as="geometry" />
        </mxCell>
        <mxCell id="Y_hPN_i8KGFdPRQdq1vt-18" value="" style="shape=image;html=1;verticalAlign=top;verticalLabelPosition=bottom;labelBackgroundColor=#ffffff;imageAspect=0;aspect=fixed;image=https://cdn1.iconfinder.com/data/icons/systemui/21/drag_vertical-128.png" parent="1" vertex="1">
          <mxGeometry x="50" y="230.09" width="20" height="20" as="geometry" />
        </mxCell>
        <mxCell id="Y_hPN_i8KGFdPRQdq1vt-19" value="Place&amp;nbsp;3" style="text;html=1;strokeColor=none;fillColor=none;align=left;verticalAlign=middle;whiteSpace=wrap;rounded=0;fontColor=#000000;spacingLeft=2;" parent="1" vertex="1">
          <mxGeometry x="90" y="230.09" width="150" height="20" as="geometry" />
        </mxCell>
        <mxCell id="Y_hPN_i8KGFdPRQdq1vt-20" value="" style="ellipse;whiteSpace=wrap;html=1;aspect=fixed;fillColor=#E6E6E6;" parent="1" vertex="1">
          <mxGeometry x="70" y="270.09000000000003" width="20" height="20" as="geometry" />
        </mxCell>
        <mxCell id="Y_hPN_i8KGFdPRQdq1vt-21" value="" style="shape=image;html=1;verticalAlign=top;verticalLabelPosition=bottom;labelBackgroundColor=#ffffff;imageAspect=0;aspect=fixed;image=https://cdn1.iconfinder.com/data/icons/systemui/21/drag_vertical-128.png" parent="1" vertex="1">
          <mxGeometry x="50" y="270.09000000000003" width="20" height="20" as="geometry" />
        </mxCell>
        <mxCell id="Y_hPN_i8KGFdPRQdq1vt-22" value="" style="ellipse;whiteSpace=wrap;html=1;aspect=fixed;fillColor=#808080;" parent="1" vertex="1">
          <mxGeometry x="300" y="230.09" width="20" height="20" as="geometry" />
        </mxCell>
        <mxCell id="Y_hPN_i8KGFdPRQdq1vt-23" value="" style="ellipse;whiteSpace=wrap;html=1;aspect=fixed;fillColor=#808080;" parent="1" vertex="1">
          <mxGeometry x="330" y="160" width="20" height="20" as="geometry" />
        </mxCell>
        <mxCell id="Y_hPN_i8KGFdPRQdq1vt-24" value="" style="ellipse;whiteSpace=wrap;html=1;aspect=fixed;fillColor=#808080;" parent="1" vertex="1">
          <mxGeometry x="404" y="140" width="20" height="20" as="geometry" />
        </mxCell>
      </root>
    </mxGraphModel>
  </diagram>
</mxfile>
